<svg xmlns="http://www.w3.org/2000/svg" xmlns:xlink="http://www.w3.org/1999/xlink" width="417.29" height="103.63" viewBox="0 0 417.29 103.63">
  <defs>
    <clipPath id="clip-logo_white">
      <rect width="417.29" height="103.63"/>
    </clipPath>
  </defs>
  <g id="logo_white" data-name="logo–white" clip-path="url(#clip-logo_white)">
    <g id="Grupo_4" data-name="Grupo 4" transform="translate(-473 -160)">
      <g id="Grupo_3" data-name="Grupo 3" transform="translate(473 160)">
        <path id="Caminho_9" data-name="Caminho 9" d="M10.632,87.851v-.058A22.818,22.818,0,0,1,0,68.5V22.831A22.831,22.831,0,0,1,22.831,0H68.5A22.732,22.732,0,0,1,82.313,4.654l.1-.034L97.976,15.537,91.8,17.769l-1.06-.075a22.934,22.934,0,0,1,.58,5.145V68.5A22.835,22.835,0,0,1,68.487,91.336H25.071l1.272,7.37Z" transform="translate(0 0)" fill="#9c10ff"/>
        <g id="Grupo_2" data-name="Grupo 2" transform="translate(17.563 12.295)">
          <path id="Caminho_10" data-name="Caminho 10" d="M64.856,82.546H19.189A17.709,17.709,0,0,1,1.5,64.856V19.189A17.709,17.709,0,0,1,19.189,1.5H64.856A17.709,17.709,0,0,1,82.546,19.189V64.856A17.709,17.709,0,0,1,64.856,82.546Z" transform="translate(3.645 3.645)" fill="#fff"/>
          <path id="Caminho_11" data-name="Caminho 11" d="M68.5,81.046A12.559,12.559,0,0,0,81.046,68.5V22.834A12.559,12.559,0,0,0,68.5,10.289H22.834A12.559,12.559,0,0,0,10.289,22.834V68.5A12.559,12.559,0,0,0,22.834,81.046H68.5m0,10.289H22.834A22.835,22.835,0,0,1,0,68.5V22.834A22.833,22.833,0,0,1,22.834,0H68.5A22.835,22.835,0,0,1,91.335,22.834V68.5A22.836,22.836,0,0,1,68.5,91.335Z" transform="translate(0 0)" fill="#9c10ff"/>
        </g>
        <path id="Caminho_12" data-name="Caminho 12" d="M5.347,0h8.029a5.347,5.347,0,0,1,5.337,5.347v8.029a5.347,5.347,0,0,1-5.337,5.337H5.347A5.347,5.347,0,0,1,0,13.376V5.347A5.347,5.347,0,0,1,5.347,0Z" transform="translate(41.084 37.113)" fill="#9c10ff"/>
        <path id="Caminho_13" data-name="Caminho 13" d="M5.347,0h8.029a5.347,5.347,0,0,1,5.337,5.347v8.029a5.347,5.347,0,0,1-5.337,5.337H5.347A5.347,5.347,0,0,1,0,13.376V5.347A5.347,5.347,0,0,1,5.347,0Z" transform="translate(41.084 63.844)" fill="#9c10ff"/>
        <path id="Caminho_14" data-name="Caminho 14" d="M5.347,0h8.029a5.347,5.347,0,0,1,5.337,5.347v8.029a5.347,5.347,0,0,1-5.337,5.337H5.347A5.347,5.347,0,0,1,0,13.376V5.347A5.347,5.347,0,0,1,5.347,0Z" transform="translate(70.487 37.113)" fill="#9c10ff"/>
        <path id="Caminho_15" data-name="Caminho 15" d="M5.347,0h8.029a5.347,5.347,0,0,1,5.337,5.347v8.029a5.347,5.347,0,0,1-5.337,5.337H5.347A5.347,5.347,0,0,1,0,13.376V5.347A5.347,5.347,0,0,1,5.347,0Z" transform="translate(70.487 63.844)" fill="#9c10ff"/>
      </g>
      <path id="União_1" data-name="União 1" d="M234.6,67.05V14.577h9.327v3.93c3-3.24,7.037-4.88,12.027-4.88a17.864,17.864,0,0,1,13.352,5.8,19.743,19.743,0,0,1,5.523,14.1A19.712,19.712,0,0,1,269.3,47.658a17.922,17.922,0,0,1-13.352,5.761c-4.99,0-9.025-1.621-12.027-4.822V67.05Zm12.4-41.356a10.585,10.585,0,0,0-3.07,7.832,10.589,10.589,0,0,0,3.07,7.832,11.16,11.16,0,0,0,15.435,0,10.587,10.587,0,0,0,3.067-7.832,10.583,10.583,0,0,0-3.067-7.832,11.153,11.153,0,0,0-15.435,0ZM196.321,49.188c-2.7-2.8-4.067-6.672-4.067-11.51v-23.1h9.327v22.3a7.827,7.827,0,0,0,1.973,5.751,7.319,7.319,0,0,0,5.462,1.973,8.22,8.22,0,0,0,6.184-2.369c1.553-1.577,2.343-4.064,2.343-7.4V14.577h9.327v37.9h-9.327v-3.23c-2.508,2.773-6.053,4.177-10.568,4.177A14.187,14.187,0,0,1,196.321,49.188ZM85.557,51.061a14.018,14.018,0,0,1-5.911-6.606l-.262-.6,8.1-4.7.3.821c1.157,3.206,3.579,4.767,7.4,4.767,4.9,0,5.465-1.915,5.465-3.356a2.543,2.543,0,0,0-1.624-2.2,25.73,25.73,0,0,0-4.7-1.907Q91.5,36.411,88.532,35.5a11.148,11.148,0,0,1-5.315-3.508,9.735,9.735,0,0,1-2.175-6.483,10.591,10.591,0,0,1,4.1-8.658,15.519,15.519,0,0,1,9.967-3.222,16.85,16.85,0,0,1,8.411,2.1,14.411,14.411,0,0,1,5.714,5.869l.333.63-7.942,4.452-.331-.722c-1.144-2.508-3.167-3.728-6.187-3.728a6.263,6.263,0,0,0-3.4.858,2.425,2.425,0,0,0-1.191,2.227c0,.582.168,1.443,1.624,2.2a29.165,29.165,0,0,0,4.728,1.863l5.793,1.787a10.794,10.794,0,0,1,5.31,3.623,10.362,10.362,0,0,1,2.149,6.688,10.406,10.406,0,0,1-4.339,8.821,17.428,17.428,0,0,1-10.6,3.13A18.807,18.807,0,0,1,85.557,51.061ZM39.774,47.619a19.746,19.746,0,0,1-5.52-14.094,19.708,19.708,0,0,1,5.523-14.134,17.915,17.915,0,0,1,13.352-5.764c4.988,0,9.023,1.621,12.024,4.825V14.577h9.33v37.9h-9.33v-3.93c-3,3.238-7.037,4.877-12.024,4.877A17.87,17.87,0,0,1,39.774,47.619Zm6.877-21.926a10.585,10.585,0,0,0-3.07,7.832,10.589,10.589,0,0,0,3.07,7.832,10.311,10.311,0,0,0,7.716,3.1,10.32,10.32,0,0,0,7.719-3.1,10.587,10.587,0,0,0,3.067-7.832,10.583,10.583,0,0,0-3.067-7.832,10.323,10.323,0,0,0-7.719-3.1A10.313,10.313,0,0,0,46.651,25.693ZM166.236,52.473V31.68L147.921,0h11.24L171.2,21.8,183.151,0h11.242L176.075,31.68V52.473Zm-27.876,0L124.476,36.844V52.473h-9.327V0h9.327V29.545l13.079-14.968h11.586L132.452,33.16l17.266,19.313Zm-123.93,0v-43H0V0H38.625V9.474H24.269v43Z" transform="translate(615.466 185.534)" fill="#fff"/>
    </g>
  </g>
</svg>
